:FULLY-SPECIFIED
:FORCE-ALL-JOINTS-BE-3DOF
:DEGREES
577
root 6.99389 16.3633 -3.56645 -165.954 76.3206 -172.851
lfemur -17.0912 -2.80683 -19.3015
ltibia 44.8829 0 0
lfoot -32.5038 10.183 0
ltoes 6.91399 0 0
rfemur -51.9971 -12.6828 13.8555
rtibia 48.8299 0 0
rfoot 11.0231 5.59007 0
rtoes -29.5526 0 0
lowerback 6.6166 -0.688321 -2.31357
upperback 2.38625 -0.904097 3.39053
thorax -1.15127 -0.429858 4.88014
lowerneck -5.36899 -13.4808 -3.992
upperneck 10.5618 -18.274 5.15475
head 4.89331 -8.82849 1.02338
lclavicle 9.42808e-15 -1.2495e-15 0
lhumerus -39.4592 -17.7736 92.5843
lradius 54.9654 0 0
lwrist 22.9968 0 0
lhand -21.1419 -3.84207 0
lfingers 7.12502 0 0
lthumb 5.23732 26.073 0
rclavicle 9.42808e-15 -1.2495e-15 0
rhumerus 28.2883 15.4821 -73.8598
rradius 133.935 0 0
rwrist -45.6267 0 0
rhand -25.7925 -21.204 0
rfingers 7.12502 0 0
rthumb 0.74614 -771.182 0
578
root 6.93645 16.375 -3.55819 -165.094 77.1618 -171.929
lfemur -16.9838 -2.70312 -19.3576
ltibia 44.5663 0 0
lfoot -32.4235 10.5541 0
ltoes 7.43789 0 0
rfemur -52.1682 -12.9927 14.0182
rtibia 50.7324 0 0
rfoot 11.686 6.10567 0
rtoes -28.2783 0 0
lowerback 6.42798 -0.685071 -2.42716
upperback 2.337 -0.912741 3.27355
thorax -1.09652 -0.437293 4.81993
lowerneck -5.43296 -13.4483 -3.93482
upperneck 10.773 -18.2455 5.14889
head 4.96242 -8.80494 1.0039
lclavicle 1.09616e-14 2.89658e-15 0
lhumerus -38.4154 -18.4894 91.7881
lradius 54.7563 0 0
lwrist 23.3771 0 0
lhand -21.0498 -3.55695 0
lfingers 7.12502 0 0
lthumb 5.32628 26.3559 0
rclavicle 1.09616e-14 2.89658e-15 0
rhumerus 28.1828 15.4742 -73.8239
rradius 133.942 0 0
rwrist -45.6297 0 0
rhand -25.6749 -21.0219 0
rfingers 7.12502 0 0
rthumb 0.859732 -770.999 0
579
root 6.87901 16.3868 -3.54994 -164.235 78.003 -171.008
lfemur -16.8764 -2.59941 -19.4138
ltibia 44.2497 0 0
lfoot -32.3431 10.9253 0
ltoes 7.9618 0 0
rfemur -52.3392 -13.3027 14.1809
rtibia 52.6348 0 0
rfoot 12.349 6.62127 0
rtoes -27.0039 0 0
lowerback 6.23935 -0.681822 -2.54074
upperback 2.28774 -0.921384 3.15658
thorax -1.04177 -0.444729 4.75971
lowerneck -5.49694 -13.4159 -3.87765
upperneck 10.9842 -18.2169 5.14303
head 5.03153 -8.78139 0.984432
lclavicle 1.2495e-14 7.04266e-15 0
lhumerus -37.3716 -19.2053 90.9918
lradius 54.5471 0 0
lwrist 23.7573 0 0
lhand -20.9576 -3.27183 0
lfingers 7.12502 0 0
lthumb 5.41525 26.6388 0
rclavicle 1.2495e-14 7.04266e-15 0
rhumerus 28.0773 15.4663 -73.7879
rradius 133.949 0 0
rwrist -45.6327 0 0
rhand -25.5573 -20.8398 0
rfingers 7.12502 0 0
rthumb 0.973324 -770.817 0
580
root 6.82157 16.3985 -3.54168 -163.375 78.8442 -170.086
lfemur -16.769 -2.4957 -19.4699
ltibia 43.9331 0 0
lfoot -32.2628 11.2964 0
ltoes 8.4857 0 0
rfemur -52.5103 -13.6126 14.3436
rtibia 54.5373 0 0
rfoot 13.012 7.13687 0
rtoes -25.7296 0 0
lowerback 6.05073 -0.678572 -2.65433
upperback 2.23849 -0.930028 3.0396
thorax -0.987026 -0.452164 4.6995
lowerneck -5.56091 -13.3834 -3.82047
upperneck 11.1954 -18.1884 5.13717
head 5.10064 -8.75784 0.96496
lclavicle 1.40285e-14 1.11887e-14 0
lhumerus -36.3278 -19.9211 90.1956
lradius 54.338 0 0
lwrist 24.1376 0 0
lhand -20.8655 -2.98671 0
lfingers 7.12502 0 0
lthumb 5.50421 26.9217 0
rclavicle 1.40285e-14 1.11887e-14 0
rhumerus 27.9718 15.4584 -73.752
rradius 133.956 0 0
rwrist -45.6357 0 0
rhand -25.4397 -20.6577 0
rfingers 7.12502 0 0
rthumb 1.08692 -770.634 0
